<?xml version="1.0" standalone="no"?><!DOCTYPE svg PUBLIC "-//W3C//DTD SVG 1.1//EN" "http://www.w3.org/Graphics/SVG/1.1/DTD/svg11.dtd"><svg t="1607262754552" class="icon" viewBox="0 0 1024 1024" version="1.1" xmlns="http://www.w3.org/2000/svg" p-id="1201" width="32" height="32" xmlns:xlink="http://www.w3.org/1999/xlink"><defs><style type="text/css"></style></defs><path d="M1018.296 512.752c-0.032-0.272-0.208-0.48-0.24-0.752 0.032-0.272 0.208-0.48 0.24-0.752 22.672-139.896-23.216-282.888-122.832-382.536C812.616 45.864 702.264 0.272 584.744 0.272a447.52 447.52 0 0 0-71.616 5.792c-0.392 0.064-0.72 0.304-1.112 0.36-0.424-0.056-0.752-0.296-1.144-0.36a446.128 446.128 0 0 0-71.512-5.76c-117.584 0-227.936 45.624-310.704 128.504C28.816 228.544-17.128 371.528 5.792 511.312c0.048 0.24 0.184 0.448 0.224 0.688-0.048 0.24-0.176 0.448-0.224 0.688-22.92 139.752 23.008 282.744 122.832 382.48 82.816 82.872 193.184 128.528 310.8 128.528a449.04 449.04 0 0 0 71.448-5.76c0.392-0.064 0.72-0.304 1.144-0.36 0.392 0.056 0.72 0.296 1.112 0.36a447.36 447.36 0 0 0 71.552 5.792c117.552 0 227.904-45.624 310.784-128.472 99.616-99.648 145.536-242.64 122.832-382.504z m-472.88-449.04c114.072-11.904 226.144 27.96 306.616 108.432 80.36 80.392 120.104 193.68 108.584 306.832-13.056 1.344-26.16 2.008-39.208 2.008h-0.024c-101.12 0-196.152-39.264-267.528-110.592C573.464 290.096 533.824 176.856 545.416 63.712z m215.28 448.256a438.136 438.136 0 0 0-150.28 98.176c-43.912 43.848-76.656 96.432-98.4 153.184-21.752-56.76-54.536-109.304-98.448-153.184A436.8 436.8 0 0 0 263.528 512a437.44 437.44 0 0 0 150.008-98.144c43.944-43.888 76.728-96.472 98.48-153.216 21.744 56.752 54.488 109.336 98.4 153.184a437.584 437.584 0 0 0 150.28 98.144zM172.088 172.24C252.464 91.728 364.648 51.864 478.632 63.744c11.64 113.08-28.072 226.32-108.552 306.648C289.584 450.992 177.336 490.648 63.432 479 51.76 365.984 91.504 252.744 172.088 172.24z m306.544 788.016c-114.192 11.6-226.136-28.048-306.568-108.528C91.504 771.216 51.76 657.992 63.432 544.992 177.472 533.36 289.6 573.008 370.104 653.608c80.448 80.296 120.16 193.536 108.528 306.648z m373.4-108.432c-80.48 80.448-192.6 119.984-306.616 108.464-11.592-113.168 28.08-226.408 108.44-306.704 80.624-80.536 192.568-120.168 306.768-108.584 11.512 113.144-28.232 226.432-108.592 306.824z" fill="#1296db" p-id="1202"></path></svg>